<?xml version="1.0" encoding="UTF-8" standalone="no"?>
<!-- Created with Inkscape (http://www.inkscape.org/) -->

<svg
   width="210mm"
   height="297mm"
   viewBox="0 0 210 297"
   version="1.1"
   id="svg1"
   xml:space="preserve"
   inkscape:version="1.4.3 (0d15f75042, 2025-12-25)"
   sodipodi:docname="music_player.svg"
   xmlns:inkscape="http://www.inkscape.org/namespaces/inkscape"
   xmlns:sodipodi="http://sodipodi.sourceforge.net/DTD/sodipodi-0.dtd"
   xmlns="http://www.w3.org/2000/svg"
   xmlns:svg="http://www.w3.org/2000/svg"><sodipodi:namedview
     id="namedview1"
     pagecolor="#505050"
     bordercolor="#eeeeee"
     borderopacity="1"
     inkscape:showpageshadow="0"
     inkscape:pageopacity="0"
     inkscape:pagecheckerboard="0"
     inkscape:deskcolor="#505050"
     inkscape:document-units="mm"
     inkscape:zoom="0.9050967"
     inkscape:cx="230.36213"
     inkscape:cy="302.17766"
     inkscape:window-width="2560"
     inkscape:window-height="1414"
     inkscape:window-x="0"
     inkscape:window-y="0"
     inkscape:window-maximized="1"
     inkscape:current-layer="layer1" /><defs
     id="defs1"><rect
       x="400.57599"
       y="324.20846"
       width="2.4748737"
       height="19.014611"
       id="rect19" /><linearGradient
       id="swatch11"
       inkscape:swatch="solid"><stop
         style="stop-color:#000000;stop-opacity:1;"
         offset="0"
         id="stop11" /></linearGradient><clipPath
       clipPathUnits="userSpaceOnUse"
       id="clipPath15"><path
         id="path15"
         style="fill:#000000;fill-opacity:1;stroke-width:1.73451"
         d="M 245.00551,43.685928 A 32.808304,32.808304 0 0 0 212.19717,76.494264 32.808304,32.808304 0 0 0 245.00551,109.3026 32.808304,32.808304 0 0 0 277.81385,76.494264 32.808304,32.808304 0 0 0 245.00551,43.685928 Z m 0,29.386993 a 3.4215287,3.4215287 0 0 1 3.4217,3.421343 3.4215287,3.4215287 0 0 1 -3.4217,3.421687 3.4215287,3.4215287 0 0 1 -3.42134,-3.421687 3.4215287,3.4215287 0 0 1 3.42134,-3.421343 z" /></clipPath></defs><g
     inkscape:label="Layer 1"
     inkscape:groupmode="layer"
     id="layer1"><g
       id="g21"
       transform="translate(-3.5095366e-4,0.26458333)"><rect
         style="fill:none;fill-opacity:0.392308;stroke:#ffffff;stroke-width:2.293;stroke-linecap:round;stroke-linejoin:round;stroke-dasharray:none;stroke-opacity:1"
         id="rect21"
         width="86.085518"
         height="56.366669"
         x="56.908745"
         y="74.859734"
         ry="5.5697532" /><rect
         style="fill:#8d8d8d;fill-opacity:0.392308;stroke:#000000;stroke-width:2.2;stroke-linecap:round;stroke-linejoin:round;stroke-dasharray:none;stroke-opacity:1"
         id="rect1"
         width="84.178566"
         height="54.3834"
         x="57.86187"
         y="75.812996"
         ry="4.9367089" /></g><g
       id="g8"
       transform="matrix(0.79856494,0,0,0.79856494,27.322656,25.791323)"><path
         sodipodi:type="star"
         style="fill:#000000;fill-opacity:1;stroke:#000000;stroke-width:1.8;stroke-linecap:round;stroke-linejoin:round;stroke-dasharray:none;stroke-opacity:1"
         id="path2"
         inkscape:flatsided="false"
         sodipodi:sides="3"
         sodipodi:cx="82.414421"
         sodipodi:cy="95.631538"
         sodipodi:r1="10.86427"
         sodipodi:r2="5.4321351"
         sodipodi:arg1="0"
         sodipodi:arg2="1.0471976"
         inkscape:rounded="0"
         inkscape:randomized="0"
         d="m 93.278691,95.631538 -8.148203,4.704372 -8.148202,4.70436 v -9.408732 -9.408734 l 8.148203,4.704368 z"
         inkscape:transform-center-x="-1.5685718"
         transform="matrix(0.57751549,0,0,0.57751549,80.883629,59.62774)" /><path
         style="fill:#000000;fill-opacity:1;stroke:#000000;stroke-width:1.94;stroke-linecap:round;stroke-linejoin:round;stroke-dasharray:none;stroke-opacity:1"
         d="m 136.1995,108.63788 v 12.43713"
         id="path3" /></g><g
       id="g9"
       transform="translate(0.6971298,1.962193)"><path
         style="fill:#000000;fill-opacity:1;stroke:#000000;stroke-width:4.44;stroke-linecap:round;stroke-linejoin:round;stroke-dasharray:none;stroke-opacity:1"
         d="M 120.6908,115.54946 H 77.817246 Z"
         id="path6" /><path
         style="fill:#ffffff;fill-opacity:1;stroke:#ffffff;stroke-width:2.14;stroke-linecap:round;stroke-linejoin:round;stroke-dasharray:none;stroke-opacity:1"
         d="M 120.6908,115.54946 H 77.817246 Z"
         id="path7" /></g><path
       style="fill:#d50000;fill-opacity:1;stroke:#17b25c;stroke-width:2.14;stroke-linecap:round;stroke-linejoin:round;stroke-dasharray:none;stroke-opacity:1"
       d="m 78.514376,117.51165 42.873554,0"
       id="path8"
       sodipodi:nodetypes="cc" /><g
       id="g10"
       transform="matrix(-0.79856494,0,0,0.79856494,172.57965,25.79132)"><path
         sodipodi:type="star"
         style="fill:#000000;fill-opacity:1;stroke:#000000;stroke-width:1.8;stroke-linecap:round;stroke-linejoin:round;stroke-dasharray:none;stroke-opacity:1"
         id="path9"
         inkscape:flatsided="false"
         sodipodi:sides="3"
         sodipodi:cx="82.414421"
         sodipodi:cy="95.631538"
         sodipodi:r1="10.86427"
         sodipodi:r2="5.4321351"
         sodipodi:arg1="0"
         sodipodi:arg2="1.0471976"
         inkscape:rounded="0"
         inkscape:randomized="0"
         d="m 93.278691,95.631538 -8.148203,4.704372 -8.148202,4.70436 v -9.408732 -9.408734 l 8.148203,4.704368 z"
         inkscape:transform-center-x="-1.5685718"
         transform="matrix(0.57751549,0,0,0.57751549,80.883629,59.62774)" /><path
         style="fill:#000000;fill-opacity:1;stroke:#000000;stroke-width:1.94;stroke-linecap:round;stroke-linejoin:round;stroke-dasharray:none;stroke-opacity:1"
         d="m 136.1995,108.63788 v 12.43713"
         id="path10" /></g><text
       xml:space="preserve"
       style="font-size:3.175px;writing-mode:lr-tb;direction:ltr;fill:#d50000;fill-opacity:1;stroke:#17b25c;stroke-width:2.14;stroke-linecap:round;stroke-linejoin:round;stroke-dasharray:none;stroke-opacity:1"
       x="73.633812"
       y="95.939621"
       id="text10"><tspan
         sodipodi:role="line"
         id="tspan10"
         style="stroke-width:2.14"
         x="73.633812"
         y="95.939621" /></text><text
       xml:space="preserve"
       style="font-size:11.1203px;text-align:end;writing-mode:lr-tb;direction:ltr;text-anchor:end;fill:#000000;fill-opacity:1;stroke:none;stroke-width:10.9661;stroke-linecap:round;stroke-linejoin:round;stroke-dasharray:none;stroke-opacity:1"
       x="138.0542"
       y="90.820717"
       id="text11"><tspan
         sodipodi:role="line"
         id="tspan11"
         style="font-style:normal;font-variant:normal;font-weight:bold;font-stretch:normal;font-size:11.1203px;font-family:'Noto Sans Lao UI';-inkscape-font-specification:'Noto Sans Lao UI Bold';fill:#000000;stroke:none;stroke-width:10.9661"
         x="138.0542"
         y="90.820717">Meow or</tspan><tspan
         sodipodi:role="line"
         style="font-style:normal;font-variant:normal;font-weight:bold;font-stretch:normal;font-size:11.1203px;font-family:'Noto Sans Lao UI';-inkscape-font-specification:'Noto Sans Lao UI Bold';fill:#000000;stroke:none;stroke-width:10.9661"
         x="138.0542"
         y="105.17569"
         id="tspan18">never</tspan></text><text
       xml:space="preserve"
       transform="scale(0.26458333)"
       id="text18"
       style="writing-mode:lr-tb;direction:ltr;white-space:pre;shape-inside:url(#rect19);display:inline;fill:none;fill-opacity:1;stroke:#000000;stroke-width:13.852;stroke-dasharray:none;stroke-opacity:1" /><text
       xml:space="preserve"
       style="font-style:normal;font-variant:normal;font-weight:bold;font-stretch:normal;font-size:7.05556px;font-family:'Noto Sans Lao UI';-inkscape-font-specification:'Noto Sans Lao UI Bold';writing-mode:lr-tb;direction:ltr;fill:#000000;fill-opacity:1;stroke:none;stroke-width:2.293;stroke-dasharray:none;stroke-opacity:1"
       x="81.467514"
       y="126.82613"
       id="text21"><tspan
         sodipodi:role="line"
         id="tspan21"
         style="font-size:7.05556px;fill:#000000;fill-opacity:1;stroke:none;stroke-width:2.293"
         x="81.467514"
         y="126.82613">ID: 1471982 </tspan></text><g
       id="g31"
       transform="translate(-8.3343747,-9.9994328)"
       inkscape:export-filename="vinyl.png"
       inkscape:export-xdpi="906.02771"
       inkscape:export-ydpi="906.02771"><path
         id="path21"
         style="fill:#1f1f1f;fill-opacity:1;stroke:none;stroke-width:2.293;stroke-dasharray:none;stroke-opacity:1"
         d="M 33.895088 79.254637 A 14.353645 14.353645 0 0 0 19.541443 93.608283 A 14.353645 14.353645 0 0 0 33.895088 107.96193 A 14.353645 14.353645 0 0 0 48.248734 93.608283 A 14.353645 14.353645 0 0 0 33.895088 79.254637 z M 33.895088 91.443557 A 2.1647508 2.1647508 0 0 1 36.059814 93.608283 A 2.1647508 2.1647508 0 0 1 33.895088 95.773009 A 2.1647508 2.1647508 0 0 1 31.730363 93.608283 A 2.1647508 2.1647508 0 0 1 33.895088 91.443557 z "
         inkscape:export-filename="vinyl.png"
         inkscape:export-xdpi="906.02771"
         inkscape:export-ydpi="906.02771" /><path
         id="path21-9"
         style="fill:#1f1f1f;fill-opacity:1;fill-rule:nonzero;stroke:none;stroke-width:2.31157;stroke-dasharray:none;stroke-opacity:1"
         d="m 69.199911,19.600914 c -7.991515,0 -14.469919,6.478403 -14.469918,14.469918 -10e-7,7.991515 6.478403,14.469918 14.469918,14.469918 7.991518,-1e-6 14.469917,-6.478404 14.469917,-14.469918 0,-7.991514 -6.478399,-14.469917 -14.469917,-14.469918 z m 0,0.859568 A 13.610348,13.61035 0 0 1 82.81026,34.070832 13.610348,13.61035 0 0 1 69.199911,47.681181 13.610348,13.61035 0 0 1 55.589561,34.070832 13.610348,13.61035 0 0 1 69.199911,20.460482 Z"
         inkscape:export-filename="vinyl_outline.png"
         inkscape:export-xdpi="906.02771"
         inkscape:export-ydpi="906.02771" /><path
         id="path22"
         style="fill:#b6b6b6;fill-opacity:1;stroke:none;stroke-width:3.1622;stroke-dasharray:none;stroke-opacity:1"
         d="M 33.895088 89.184264 A 4.424149 4.424149 0 0 0 29.470552 93.608283 A 4.424149 4.424149 0 0 0 33.895088 98.032819 A 4.424149 4.424149 0 0 0 38.319108 93.608283 A 4.424149 4.424149 0 0 0 33.895088 89.184264 z M 33.895088 92.037319 A 1.5709635 1.5709635 0 0 1 35.466052 93.608283 A 1.5709635 1.5709635 0 0 1 33.895088 95.179246 A 1.5709635 1.5709635 0 0 1 32.324125 93.608283 A 1.5709635 1.5709635 0 0 1 33.895088 92.037319 z " /><circle
         style="fill:none;fill-opacity:1;stroke:#2a2a2a;stroke-width:0.693;stroke-linecap:round;stroke-linejoin:round;stroke-dasharray:none;stroke-opacity:1"
         id="path25"
         cx="33.894924"
         cy="93.608498"
         r="12.81029" /><circle
         style="fill:none;fill-opacity:1;stroke:#2a2a2a;stroke-width:0.693;stroke-linecap:round;stroke-linejoin:round;stroke-dasharray:none;stroke-opacity:1"
         id="circle25"
         cx="33.894924"
         cy="93.608498"
         r="11.156645" /><circle
         style="fill:none;fill-opacity:1;stroke:#2a2a2a;stroke-width:0.693;stroke-linecap:round;stroke-linejoin:round;stroke-dasharray:none;stroke-opacity:1"
         id="circle26"
         cx="33.894924"
         cy="93.608498"
         r="9.3707075" /><circle
         style="fill:none;fill-opacity:1;stroke:#2a2a2a;stroke-width:0.693;stroke-linecap:round;stroke-linejoin:round;stroke-dasharray:none;stroke-opacity:1"
         id="circle27"
         cx="33.894924"
         cy="93.608498"
         r="7.4194055" /><circle
         style="fill:none;fill-opacity:1;stroke:#2a2a2a;stroke-width:0.693;stroke-linecap:round;stroke-linejoin:round;stroke-dasharray:none;stroke-opacity:1"
         id="circle28"
         cx="33.894924"
         cy="93.608498"
         r="5.6003952" /><path
         style="fill:none;fill-opacity:1;stroke:#2a2a2a;stroke-width:0.692999;stroke-linecap:round;stroke-linejoin:round;stroke-dasharray:none;stroke-opacity:1"
         d="m 39.495319,93.608497 h 7.209896"
         id="path28"
         sodipodi:nodetypes="cc" /><path
         style="fill:none;fill-opacity:1;stroke:#2a2a2a;stroke-width:0.692999;stroke-linecap:round;stroke-linejoin:round;stroke-dasharray:none;stroke-opacity:1"
         d="m 21.084633,93.608498 h 7.209896"
         id="path29"
         sodipodi:nodetypes="cc" /><path
         style="fill:none;fill-opacity:1;stroke:#2a2a2a;stroke-width:0.692999;stroke-linecap:round;stroke-linejoin:round;stroke-dasharray:none;stroke-opacity:1"
         d="M 33.894924,88.008102 V 80.798206"
         id="path30"
         sodipodi:nodetypes="cc" /><path
         style="fill:none;fill-opacity:1;stroke:#2a2a2a;stroke-width:0.692999;stroke-linecap:round;stroke-linejoin:round;stroke-dasharray:none;stroke-opacity:1"
         d="M 33.894924,106.41879 V 99.208893"
         id="path31"
         sodipodi:nodetypes="cc" /></g><g
       id="g32"
       transform="rotate(27.390775,8.5948413,96.582041)"
       inkscape:export-filename="vinyl_head.png"
       inkscape:export-xdpi="906.02771"
       inkscape:export-ydpi="906.02771"><path
         style="fill:none;fill-opacity:1;stroke:#ffffff;stroke-width:0.811001;stroke-linecap:round;stroke-linejoin:round;stroke-dasharray:none;stroke-opacity:1"
         d="m 34.139361,56.867633 v -8.069792 l -4.456946,-9.19427"
         id="path32" /><rect
         style="fill:#1f1f1f;fill-opacity:1;stroke:#ffffff;stroke-width:0.501237;stroke-linecap:round;stroke-linejoin:round;stroke-dasharray:none;stroke-opacity:1"
         id="rect31"
         width="2.6338651"
         height="4.2107697"
         x="32.82243"
         y="56.867634"
         ry="1.1852015" /></g><path
       id="path4"
       style="fill:#17b25c;fill-opacity:1;stroke:none;stroke-width:0.811001;stroke-linecap:round;stroke-linejoin:round"
       d="m 110.04856,61.507056 a 1.0700001,1.0700001 0 0 0 -1.05368,1.069702 1.0700001,1.0700001 0 0 0 1.05368,1.069702 z"
       inkscape:export-filename="progess_edge.png"
       inkscape:export-xdpi="1177.191"
       inkscape:export-ydpi="1177.191" /></g></svg>
